<?xml version="1.0" encoding="UTF-8"?>
<svg id="Camada_2" data-name="Camada 2" xmlns="http://www.w3.org/2000/svg" viewBox="0 0 173.01 173.01">
  <defs>
    <style>
      .cls-1 {
        fill: #ffa300;
      }
    </style>
  </defs>
  <g id="WhatsApp">
    <g>
      <path class="cls-1" d="M103.47,92.63l-6.83,7.4c-9.06-3.21-16.07-9.17-20.63-17.58l4.6-7.47c-1.29-3.72-3.31-9.73-5.67-12.77-3.54-4.57-9.59.57-11.3,4.06-3.59,7.34-1.23,14.14,2.97,20.62,8.73,13.45,21.38,23.94,37.71,25.27,7.39.6,14.58-5.68,12.61-13.13-3.62-2.19-9.89-5.11-13.46-6.4Z"/>
      <path class="cls-1" d="M86.5,0C38.73,0,0,38.73,0,86.5s38.73,86.5,86.5,86.5,86.5-38.73,86.5-86.5S134.28,0,86.5,0ZM133.65,119.32c-16.54,22.42-47.06,29.05-71.88,15.35l-27.14,6.95,7.05-26.71c-14.06-23.81-8.58-53.94,12.44-71.15,21.67-17.74,53.06-16.44,73.13,2.66,20.25,19.27,22.91,50.51,6.4,72.89Z"/>
    </g>
  </g>
</svg>