<?xml version="1.0" encoding="UTF-8"?>
<svg id="Camada_2" data-name="Camada 2" xmlns="http://www.w3.org/2000/svg" viewBox="0 0 173.01 173.01">
  <defs>
    <style>
      .cls-1 {
        fill: #ffa300;
      }
    </style>
  </defs>
  <g id="Camada_1-2" data-name="Camada 1">
    <g>
      <path class="cls-1" d="M118.57,96.26c-2.75,0-5.5,2.5-5.5,10.88s2.75,10.88,5.5,10.88,5.5-2.5,5.5-10.88-2.75-10.88-5.5-10.88Z"/>
      <path class="cls-1" d="M59.94,65.88c0-8.38-2.75-10.88-5.5-10.88s-5.5,2.5-5.5,10.88,2.75,10.88,5.5,10.88,5.5-2.5,5.5-10.88Z"/>
      <path class="cls-1" d="M86.5,0C38.73,0,0,38.73,0,86.5s38.73,86.5,86.5,86.5,86.5-38.73,86.5-86.5S134.28,0,86.5,0ZM31.18,65.88c0-15.5,10-24.38,23.25-24.38s23.25,8.88,23.25,24.38-10,24.38-23.25,24.38-23.25-8.75-23.25-24.38ZM67.19,130.26h-21.13l59.76-87.52h21.13l-59.76,87.52ZM118.57,131.51c-13.25,0-23.25-8.75-23.25-24.38s10-24.38,23.25-24.38,23.25,8.88,23.25,24.38-10,24.38-23.25,24.38Z"/>
    </g>
  </g>
</svg>